# xmcd
#
# Track frame offsets:
#	150
#	17837
#	34055
#	50618
#	67470
#	88469
#	107097
#	125876
#	143608
#	162161
#
# Disc length: 2420 seconds
#
# Revision: 6
# Processed by: cddbd v1.5.2PL0 Copyright (c) Steve Scherf et al.
# Submitted via: EasyCDDAExtractor 2011.3.0.0
#
DISCID=9609720a
DTITLE=Dino Dvornik - Svicky
DYEAR=2002
DGENRE=Pop
TTITLE0=Ritam moj
TTITLE1=Mala je avion
TTITLE2=Ljubav osjećam
TTITLE3=Telefon
TTITLE4=Probaj sve
TTITLE5=Ne znam kome pripadam
TTITLE6=Karamba
TTITLE7=Ne okreći se sine
TTITLE8=Život moj
TTITLE9=Sve što imam to si ti
EXTD=YEAR: 2002
EXTT0=
EXTT1=
EXTT2=
EXTT3=
EXTT4=
EXTT5=
EXTT6=
EXTT7=
EXTT8=
EXTT9=
PLAYORDER=
